HIERARCHY
ROOT ui
{
	 OFFSET 0 0 0
	 CHANNELS 3 XPosition YPosition Z Position
	 EndSite
	 {
	 OFFSET 0 -1 0
	 }
}
ROOT li
{
	 OFFSET 0 0 0
	 CHANNELS 3 XPosition YPosition Z Position
	 EndSite
	 {
	 OFFSET 0 -1 0
	 }
}
ROOT ul
{
	 OFFSET 0 0 0
	 CHANNELS 3 XPosition YPosition Z Position
	 EndSite
	 {
	 OFFSET 0 -1 0
	 }
}
ROOT ll
{
	 OFFSET 0 0 0
	 CHANNELS 3 XPosition YPosition Z Position
	 EndSite
	 {
	 OFFSET 0 -1 0
	 }
}
ROOT tt
{
	 OFFSET 0 0 0
	 CHANNELS 3 XPosition YPosition Z Position
	 EndSite
	 {
	 OFFSET 0 -1 0
	 }
}
ROOT tb
{
	 OFFSET 0 0 0
	 CHANNELS 3 XPosition YPosition Z Position
	 EndSite
	 {
	 OFFSET 0 -1 0
	 }
}
ROOT td
{
	 OFFSET 0 0 0
	 CHANNELS 3 XPosition YPosition Z Position
	 EndSite
	 {
	 OFFSET 0 -1 0
	 }
}
ROOT v
{
	 OFFSET 0 0 0
	 CHANNELS 3 XPosition YPosition Z Position
	 EndSite
	 {
	 OFFSET 0 -1 0
	 }
}
ROOT bn
{
	 OFFSET 0 0 0
	 CHANNELS 3 XPosition YPosition Z Position
	 EndSite
	 {
	 OFFSET 0 -1 0
	 }
}
MOTION
Frames: 29
Frame Time: 0.002
8.992800116539002E-4	2.1379299461841584E-4	0		0.4707320251464844	-2.488156494140625	0		-1.074026611328125	0.11964722442626953	0		-0.7164535522460938	-2.64464111328125	0		1.4307891845703125	-0.80908447265625	0		3.032656494140625	-0.04136410903930664	0		4.4552744140625	0.13565354919433595	0		5.66544921875	0.1696504669189453	0		-0.1551239013671875	5.95124951171875	0		
0.003474605083465576	0.011567190170288085	0		0.4915733337402344	-2.47808837890625	0		-1.0714461669921875	0.13187600708007813	0		-0.7246078491210938	-2.635162841796875	0		1.4373631591796876	-0.80264013671875	0		3.030671142578125	-0.05957891464233398	0		4.459380859375	0.12348911285400391	0		5.66276513671875	0.15774346923828125	0		-0.28981719970703124	5.9331572265625	0		
-0.008210895538330078	0.009196206092834473	0		0.4891209716796875	-2.483570556640625	0		-1.0843331298828125	0.11939990234375	0		-0.7018773803710937	-2.6322578125	0		1.425810302734375	-0.8028438720703125	0		3.015031982421875	-0.05952139663696289	0		4.44871923828125	0.12361983489990234	0		5.663029296875	0.1578411407470703	0		-0.1719551239013672	5.94231103515625	0		
0.0019476269483566285	-0.0015708099603652954	0		0.5136610107421875	-2.489541259765625	0		-1.0839993896484375	0.1186920166015625	0		-0.725330322265625	-2.63847265625	0		1.4231776123046875	-0.8072023315429687	0		3.04327001953125	-0.06627197265625	0		4.46005078125	0.12335233306884766	0		5.66329150390625	0.1579632568359375	0		-0.172300537109375	5.9417099609375	0		
-0.009747953414916992	-0.003909930944442749	0		0.48834747314453125	-2.48656298828125	0		-1.083673828125	0.1180049819946289	0		-0.6917849731445312	-2.644728759765625	0		1.4236099853515625	-0.8076001586914062	0		3.015140625	-0.03795046997070312	0		4.45735791015625	0.12236061096191406	0		5.6664921875	0.1700863494873047	0		-0.1584639129638672	5.95086669921875	0		
-0.002293148994445801	0.002419909954071045	0		0.4998428955078125	-2.493248291015625	0		-1.0742147216796876	0.1251764373779297	0		-0.7600003662109375	-2.636076904296875	0		1.42710107421875	-0.8040341186523438	0		3.0320634765625	-0.06045790100097656	0		4.46379833984375	0.1292138214111328	0		5.6696962890625	0.18395816040039062	0		-0.1597913360595703	5.951328125	0		
0.0010720859766006469	0.004851932048797607	0		0.4926297607421875	-2.482561279296875	0		-1.0739173583984376	0.12454645538330078	0		-0.6864859619140625	-2.6420078125	0		1.4305546875	-0.801445556640625	0		3.043507568359375	-0.05384059906005859	0		4.46098583984375	0.12324635314941407	0		5.66697314453125	0.1704217529296875	0		-0.17333126831054688	5.9400380859375	0		
-0.001689249038696289	0.001424875020980835	0		0.5180877685546875	-2.488446044921875	0		-1.077709228515625	0.12002522277832031	0		-0.7228917846679688	-2.640888671875	0		1.427877685546875	-0.8047229614257813	0		3.0646572265625	-0.062385074615478514	0		4.46126611328125	0.1232310791015625	0		5.66719384765625	0.1706006774902344	0		-0.17464144897460937	5.9405556640625	0		
-0.006324492931365967	0.00606484603881836	0		0.5165523071289062	-2.491807861328125	0		-1.043525390625	0.11485490417480469	0		-0.7002894897460937	-2.63780810546875	0		1.4251585693359374	-0.8089769897460938	0		3.023998046875	-0.058791419982910154	0		4.46152783203125	0.12322062683105468	0		5.667400390625	0.17077569580078125	0		-0.30832891845703125	5.92049951171875	0		
-0.003379051923751831	-0.011401835441589356	0		0.49108984375	-2.4887080078125	0		-1.08227685546875	0.11504743957519531	0		-0.7239010009765625	-2.643853515625	0		1.4254847412109375	-0.8092621459960937	0		3.034984130859375	-0.07412678527832031	0		4.45875146484375	0.12226588439941406	0		5.68177685546875	0.15993736267089845	0		-0.17329470825195312	5.93662255859375	0		
-0.002788296937942505	0.008216365814208985	0		0.5024177551269531	-2.49524169921875	0		-1.0610943603515626	0.11220347595214844	0		-0.6844393310546875	-2.643990966796875	0		1.434727783203125	-0.812683349609375	0		3.067754150390625	-0.044832412719726565	0		4.469953125	0.12105946350097656	0		5.680755859375	0.19128370666503905	0		-0.15935964965820312	5.94697705078125	0		
0.0064022822380065915	0.006715763092041016	0		0.4970454406738281	-2.482439453125	0		-1.0686409912109376	0.1259258346557617	0		-0.71793896484375	-2.638775146484375	0		1.4352481689453125	-0.7989195556640625	0		3.033669921875	-0.061336177825927735	0		4.46529833984375	0.12913754272460937	0		5.6767744140625	0.21062498474121094	0		-0.16155218505859376	5.94866064453125	0		
0.0025215768814086915	0.0024877450466156007	0		0.5202667236328125	-2.490115966796875	0		-1.076599853515625	0.11770066070556641	0		-0.6857091064453125	-2.646689697265625	0		1.4234737548828125	-0.7999141235351562	0		3.024901123046875	-0.059282089233398436	0		4.45826806640625	0.11725006866455077	0		5.67221875	0.15383148193359375	0		-0.3083072814941406	5.91795263671875	0		
-0.005271663188934326	0.00436898422241211	0		0.49257498168945313	-2.489851806640625	0		-1.081506103515625	0.11347170257568359	0		-0.6853968505859375	-2.64698681640625	0		1.4265091552734375	-0.8101497802734375	0		3.029931640625	-0.06746753692626953	0		4.46253759765625	0.12315711212158204	0		5.67408984375	0.1970831298828125	0		-0.17606773376464843	5.9383310546875	0		
-2.110929936170578E-4	-9.405689835548401E-4	0		0.518774658203125	-2.493511962890625	0		-1.0813609619140625	0.11320366668701172	0		-0.6892034301757812	-2.65116650390625	0		1.42669384765625	-0.8103102416992187	0		3.04647119140625	-0.045845741271972655	0		4.4665400390625	0.11505733489990234	0		5.682494140625	0.1604239501953125	0		-0.30855865478515626	5.9174404296875	0		
-8.109399676322937E-5	-0.0011249940395355225	0		0.47797357177734373	-2.49395556640625	0		-1.0720948486328126	0.12082427215576172	0		-0.744944091796875	-2.648384521484375	0		1.4299200439453126	-0.8065023803710938	0		3.034322021484375	-0.06171772384643555	0		4.46591357421875	0.12903211975097656	0		5.6855439453125	0.1741332550048828	0		-0.1610769500732422	5.9466455078125	0		
-0.001829224944114685	0.0067600331306457515	0		0.5232377319335938	-2.488888427734375	0		-1.071987060546875	0.12065167999267579	0		-0.7176561279296875	-2.642027099609375	0		1.4331007080078124	-0.8036732788085937	0		3.061535400390625	-0.05627708435058594	0		4.4667744140625	0.11496592712402344	0		5.67733154296875	0.21077992248535157	0		-0.3086388549804687	5.91709033203125	0		
1.2101399898529053E-4	-0.0013897000551223754	0		0.4953654479980469	-2.488504150390625	0		-1.075966796875	0.11659341430664062	0		-0.6846240234375	-2.64773291015625	0		1.430150146484375	-0.8067173461914062	0		3.050506103515625	-0.06315877151489258	0		4.463005859375	0.12297647857666015	0		5.68569189453125	0.1740133819580078	0		-0.17623789978027343	5.937640625	0		
1.9471900165081023E-4	-0.0014746700525283814	0		0.5453201904296875	-2.496466552734375	0		-1.08096337890625	0.11259191131591798	0		-0.6953771362304687	-2.638628662109375	0		1.42433447265625	-0.8006905517578125	0		3.0576142578125	-0.06135249710083008	0		4.4630791015625	0.12291328430175781	0		5.67932666015625	0.17418815612792968	0		-0.30956015014648436	5.91790185546875	0		
-0.004659585952758789	0.0035556159019470217	0		0.4934701843261719	-2.490608642578125	0		-1.0809063720703125	0.11253617095947266	0		-0.6885536499023438	-2.651806396484375	0		1.427213623046875	-0.8108006591796875	0		3.034656982421875	-0.06200779724121094	0		4.46011865234375	0.12190389251708984	0		5.68232080078125	0.18779371643066406	0		-0.16097296142578124	5.946232421875	0		
2.928119897842407E-4	-0.0015636930465698243	0		0.5043911437988281	-2.496836181640625	0		-1.0717249755859375	0.12034989929199219	0		-0.7444821166992187	-2.648847900390625	0		1.43032080078125	-0.8068934936523438	0		3.070762939453125	-0.058690593719482424	0		4.47524658203125	0.1265837097167969	0		5.68528955078125	0.19967431640625	0		-0.15991873168945311	5.94518408203125	0		
0.007442516803741455	0.005301776885986328	0		0.49863113403320314	-2.48374609375	0		-1.0676268310546875	0.12427626037597657	0		-0.6803775024414063	-2.643982177734375	0		1.4364649658203126	-0.8000204467773437	0		3.034724853515625	-0.06208676147460938	0		4.47116943359375	0.12061376190185547	0		5.6887734375	0.18559840393066407	0		-0.17500599670410155	5.93644091796875	0		
-0.004575885772705078	0.0035221428871154785	0		0.5215015869140625	-2.491145751953125	0		-1.0757508544921874	0.11643456268310547	0		-0.7193927001953125	-2.644281005859375	0		1.430351806640625	-0.8069151611328125	0		3.062629150390625	-0.06859264373779297	0		4.47807861328125	0.11446820831298828	0		5.68878369140625	0.1855445556640625	0		-0.17593148803710937	5.9374677734375	0		
0.0052497491836547856	-0.006629939079284668	0		0.49349575805664064	-2.4906318359375	0		-1.08081640625	0.11255215454101562	0		-0.6844620971679688	-2.647871337890625	0		1.4214052734375	-0.8037420043945313	0		3.03474267578125	-0.062093711853027346	0		4.46708447265625	0.11466026306152344	0		5.6887861328125	0.185530029296875	0		-0.17589494323730467	5.93749169921875	0		
-0.006790631771087646	-0.00838492202758789	0		0.4934817810058594	-2.49060009765625	0		-1.080822998046875	0.11258817291259765	0		-0.7584297485351562	-2.64453076171875	0		1.4272716064453126	-0.81081787109375	0		3.051874267578125	-0.05437062835693359	0		4.47118310546875	0.1206090087890625	0		5.68946826171875	0.1820694274902344	0		-0.16072854614257812	5.94625927734375	0		
3.1521299481391906E-4	-0.0014697580337524414	0		0.5043594970703125	-2.496753173828125	0		-1.071699951171875	0.12046705627441406	0		-0.6844910888671875	-2.647797119140625	0		1.43032568359375	-0.8068305053710938	0		3.034718994140625	-0.06202724456787109	0		4.48216455078125	0.1204581298828125	0		5.68530322265625	0.19962625122070313	0		-0.16074974060058594	5.946298828125	0		
0.0033426129817962645	0.0015213760137557984	0		0.4985769653320313	-2.483602294921875	0		-1.0676556396484376	0.12443512725830078	0		-0.753351318359375	-2.638539794921875	0		1.4303045654296875	-0.8067789916992187	0		3.066671630859375	-0.0635322036743164	0		4.48213916015625	0.12052467346191406	0		5.6852861328125	0.19975103759765625	0		-0.16080400085449217	5.94634228515625	0		
2.5793299078941345E-4	-0.0013773750066757202	0		0.4954798583984375	-2.488496337890625	0		-1.0419046630859374	0.11201658630371093	0		-0.6845111083984375	-2.64771435546875	0		1.43027978515625	-0.806718017578125	0		3.050642578125	-0.06317405700683594	0		4.47800048828125	0.11468515777587891	0		5.6823232421875	0.18793702697753906	0		-0.17604722595214845	5.93765478515625	0		
-0.004691442966461182	0.0037598259449005125	0		0.4934395446777344	-2.490404296875	0		-1.0809383544921876	0.11273985290527344	0		-0.7302957763671875	-2.634864990234375	0		1.421306396484375	-0.8034910888671875	0		3.041641845703125	-0.06092558670043945	0		4.4779609375	0.11479422760009765	0		5.67811962890625	0.20217251586914062	0		-0.1761639862060547	5.9377021484375	0		
